<mxfile host="app.diagrams.net" modified="2024-05-23T09:35:02.097Z" agent="Mozilla/5.0 (Windows NT 10.0; Win64; x64) AppleWebKit/537.36 (KHTML, like Gecko) Chrome/124.0.0.0 Safari/537.36" etag="oqy1DS83AmGy3zNRWusS" version="24.4.4" type="device">
  <diagram name="페이지-1" id="EUmJmh5tnegRt2-Yzuib">
    <mxGraphModel dx="2206" dy="1148" grid="1" gridSize="10" guides="1" tooltips="1" connect="1" arrows="1" fold="1" page="1" pageScale="1" pageWidth="827" pageHeight="1169" math="0" shadow="0">
      <root>
        <mxCell id="0" />
        <mxCell id="1" parent="0" />
        <mxCell id="5y4-DtkRxpoeKOYM4xI7-9" value="Account" style="swimlane;fontStyle=1;align=center;verticalAlign=top;childLayout=stackLayout;horizontal=1;startSize=26;horizontalStack=0;resizeParent=1;resizeParentMax=0;resizeLast=0;collapsible=1;marginBottom=0;whiteSpace=wrap;html=1;" parent="1" vertex="1">
          <mxGeometry x="640" y="200" width="160" height="86" as="geometry" />
        </mxCell>
        <mxCell id="5y4-DtkRxpoeKOYM4xI7-10" value="ID : Text" style="text;strokeColor=none;fillColor=none;align=left;verticalAlign=top;spacingLeft=4;spacingRight=4;overflow=hidden;rotatable=0;points=[[0,0.5],[1,0.5]];portConstraint=eastwest;whiteSpace=wrap;html=1;" parent="5y4-DtkRxpoeKOYM4xI7-9" vertex="1">
          <mxGeometry y="26" width="160" height="26" as="geometry" />
        </mxCell>
        <mxCell id="5y4-DtkRxpoeKOYM4xI7-13" value="password : Text" style="text;strokeColor=none;fillColor=none;align=left;verticalAlign=top;spacingLeft=4;spacingRight=4;overflow=hidden;rotatable=0;points=[[0,0.5],[1,0.5]];portConstraint=eastwest;whiteSpace=wrap;html=1;" parent="5y4-DtkRxpoeKOYM4xI7-9" vertex="1">
          <mxGeometry y="52" width="160" height="26" as="geometry" />
        </mxCell>
        <mxCell id="5y4-DtkRxpoeKOYM4xI7-11" value="" style="line;strokeWidth=1;fillColor=none;align=left;verticalAlign=middle;spacingTop=-1;spacingLeft=3;spacingRight=3;rotatable=0;labelPosition=right;points=[];portConstraint=eastwest;strokeColor=inherit;" parent="5y4-DtkRxpoeKOYM4xI7-9" vertex="1">
          <mxGeometry y="78" width="160" height="8" as="geometry" />
        </mxCell>
        <mxCell id="5y4-DtkRxpoeKOYM4xI7-14" value="&amp;lt;&amp;lt;interface&amp;gt;&amp;gt;&lt;br&gt;AccountService" style="swimlane;fontStyle=1;align=center;verticalAlign=top;childLayout=stackLayout;horizontal=1;startSize=40;horizontalStack=0;resizeParent=1;resizeParentMax=0;resizeLast=0;collapsible=1;marginBottom=0;whiteSpace=wrap;html=1;" parent="1" vertex="1">
          <mxGeometry x="640" y="560" width="160" height="74" as="geometry" />
        </mxCell>
        <mxCell id="5y4-DtkRxpoeKOYM4xI7-16" value="" style="line;strokeWidth=1;fillColor=none;align=left;verticalAlign=middle;spacingTop=-1;spacingLeft=3;spacingRight=3;rotatable=0;labelPosition=right;points=[];portConstraint=eastwest;strokeColor=inherit;" parent="5y4-DtkRxpoeKOYM4xI7-14" vertex="1">
          <mxGeometry y="40" width="160" height="8" as="geometry" />
        </mxCell>
        <mxCell id="5y4-DtkRxpoeKOYM4xI7-17" value="requestMake()" style="text;strokeColor=none;fillColor=none;align=left;verticalAlign=top;spacingLeft=4;spacingRight=4;overflow=hidden;rotatable=0;points=[[0,0.5],[1,0.5]];portConstraint=eastwest;whiteSpace=wrap;html=1;" parent="5y4-DtkRxpoeKOYM4xI7-14" vertex="1">
          <mxGeometry y="48" width="160" height="26" as="geometry" />
        </mxCell>
        <mxCell id="5y4-DtkRxpoeKOYM4xI7-25" value="&amp;lt;&amp;lt;interface&amp;gt;&amp;gt;&lt;br&gt;ProjectService" style="swimlane;fontStyle=1;align=center;verticalAlign=top;childLayout=stackLayout;horizontal=1;startSize=40;horizontalStack=0;resizeParent=1;resizeParentMax=0;resizeLast=0;collapsible=1;marginBottom=0;whiteSpace=wrap;html=1;" parent="1" vertex="1">
          <mxGeometry x="840" y="560" width="160" height="100" as="geometry" />
        </mxCell>
        <mxCell id="5y4-DtkRxpoeKOYM4xI7-27" value="" style="line;strokeWidth=1;fillColor=none;align=left;verticalAlign=middle;spacingTop=-1;spacingLeft=3;spacingRight=3;rotatable=0;labelPosition=right;points=[];portConstraint=eastwest;strokeColor=inherit;" parent="5y4-DtkRxpoeKOYM4xI7-25" vertex="1">
          <mxGeometry y="40" width="160" height="8" as="geometry" />
        </mxCell>
        <mxCell id="5y4-DtkRxpoeKOYM4xI7-29" value="requestMake()" style="text;strokeColor=none;fillColor=none;align=left;verticalAlign=top;spacingLeft=4;spacingRight=4;overflow=hidden;rotatable=0;points=[[0,0.5],[1,0.5]];portConstraint=eastwest;whiteSpace=wrap;html=1;" parent="5y4-DtkRxpoeKOYM4xI7-25" vertex="1">
          <mxGeometry y="48" width="160" height="26" as="geometry" />
        </mxCell>
        <mxCell id="5y4-DtkRxpoeKOYM4xI7-31" value="notifyToPL()" style="text;strokeColor=none;fillColor=none;align=left;verticalAlign=top;spacingLeft=4;spacingRight=4;overflow=hidden;rotatable=0;points=[[0,0.5],[1,0.5]];portConstraint=eastwest;whiteSpace=wrap;html=1;" parent="5y4-DtkRxpoeKOYM4xI7-25" vertex="1">
          <mxGeometry y="74" width="160" height="26" as="geometry" />
        </mxCell>
        <mxCell id="5y4-DtkRxpoeKOYM4xI7-33" value="&amp;lt;&amp;lt;interface&amp;gt;&amp;gt;&lt;br&gt;IssueService" style="swimlane;fontStyle=1;align=center;verticalAlign=top;childLayout=stackLayout;horizontal=1;startSize=40;horizontalStack=0;resizeParent=1;resizeParentMax=0;resizeLast=0;collapsible=1;marginBottom=0;whiteSpace=wrap;html=1;" parent="1" vertex="1">
          <mxGeometry x="1040" y="560" width="160" height="204" as="geometry" />
        </mxCell>
        <mxCell id="5y4-DtkRxpoeKOYM4xI7-35" value="" style="line;strokeWidth=1;fillColor=none;align=left;verticalAlign=middle;spacingTop=-1;spacingLeft=3;spacingRight=3;rotatable=0;labelPosition=right;points=[];portConstraint=eastwest;strokeColor=inherit;" parent="5y4-DtkRxpoeKOYM4xI7-33" vertex="1">
          <mxGeometry y="40" width="160" height="8" as="geometry" />
        </mxCell>
        <mxCell id="5y4-DtkRxpoeKOYM4xI7-37" value="requestMake()" style="text;strokeColor=none;fillColor=none;align=left;verticalAlign=top;spacingLeft=4;spacingRight=4;overflow=hidden;rotatable=0;points=[[0,0.5],[1,0.5]];portConstraint=eastwest;whiteSpace=wrap;html=1;" parent="5y4-DtkRxpoeKOYM4xI7-33" vertex="1">
          <mxGeometry y="48" width="160" height="26" as="geometry" />
        </mxCell>
        <mxCell id="5y4-DtkRxpoeKOYM4xI7-60" value="requestBrowse()" style="text;strokeColor=none;fillColor=none;align=left;verticalAlign=top;spacingLeft=4;spacingRight=4;overflow=hidden;rotatable=0;points=[[0,0.5],[1,0.5]];portConstraint=eastwest;whiteSpace=wrap;html=1;" parent="5y4-DtkRxpoeKOYM4xI7-33" vertex="1">
          <mxGeometry y="74" width="160" height="26" as="geometry" />
        </mxCell>
        <mxCell id="5y4-DtkRxpoeKOYM4xI7-63" value="requestEdit()" style="text;strokeColor=none;fillColor=none;align=left;verticalAlign=top;spacingLeft=4;spacingRight=4;overflow=hidden;rotatable=0;points=[[0,0.5],[1,0.5]];portConstraint=eastwest;whiteSpace=wrap;html=1;" parent="5y4-DtkRxpoeKOYM4xI7-33" vertex="1">
          <mxGeometry y="100" width="160" height="26" as="geometry" />
        </mxCell>
        <mxCell id="5y4-DtkRxpoeKOYM4xI7-65" value="requestAssign()" style="text;strokeColor=none;fillColor=none;align=left;verticalAlign=top;spacingLeft=4;spacingRight=4;overflow=hidden;rotatable=0;points=[[0,0.5],[1,0.5]];portConstraint=eastwest;whiteSpace=wrap;html=1;" parent="5y4-DtkRxpoeKOYM4xI7-33" vertex="1">
          <mxGeometry y="126" width="160" height="26" as="geometry" />
        </mxCell>
        <mxCell id="5y4-DtkRxpoeKOYM4xI7-39" value="notifyToPL()" style="text;strokeColor=none;fillColor=none;align=left;verticalAlign=top;spacingLeft=4;spacingRight=4;overflow=hidden;rotatable=0;points=[[0,0.5],[1,0.5]];portConstraint=eastwest;whiteSpace=wrap;html=1;" parent="5y4-DtkRxpoeKOYM4xI7-33" vertex="1">
          <mxGeometry y="152" width="160" height="26" as="geometry" />
        </mxCell>
        <mxCell id="5y4-DtkRxpoeKOYM4xI7-66" value="notifyToDev()" style="text;strokeColor=none;fillColor=none;align=left;verticalAlign=top;spacingLeft=4;spacingRight=4;overflow=hidden;rotatable=0;points=[[0,0.5],[1,0.5]];portConstraint=eastwest;whiteSpace=wrap;html=1;" parent="5y4-DtkRxpoeKOYM4xI7-33" vertex="1">
          <mxGeometry y="178" width="160" height="26" as="geometry" />
        </mxCell>
        <mxCell id="5y4-DtkRxpoeKOYM4xI7-44" value="Project" style="swimlane;fontStyle=1;align=center;verticalAlign=top;childLayout=stackLayout;horizontal=1;startSize=26;horizontalStack=0;resizeParent=1;resizeParentMax=0;resizeLast=0;collapsible=1;marginBottom=0;whiteSpace=wrap;html=1;" parent="1" vertex="1">
          <mxGeometry x="840" y="200" width="160" height="112" as="geometry" />
        </mxCell>
        <mxCell id="5y4-DtkRxpoeKOYM4xI7-45" value="이름 : Text" style="text;strokeColor=none;fillColor=none;align=left;verticalAlign=top;spacingLeft=4;spacingRight=4;overflow=hidden;rotatable=0;points=[[0,0.5],[1,0.5]];portConstraint=eastwest;whiteSpace=wrap;html=1;" parent="5y4-DtkRxpoeKOYM4xI7-44" vertex="1">
          <mxGeometry y="26" width="160" height="26" as="geometry" />
        </mxCell>
        <mxCell id="5y4-DtkRxpoeKOYM4xI7-47" value="설명 : Text" style="text;strokeColor=none;fillColor=none;align=left;verticalAlign=top;spacingLeft=4;spacingRight=4;overflow=hidden;rotatable=0;points=[[0,0.5],[1,0.5]];portConstraint=eastwest;whiteSpace=wrap;html=1;" parent="5y4-DtkRxpoeKOYM4xI7-44" vertex="1">
          <mxGeometry y="52" width="160" height="26" as="geometry" />
        </mxCell>
        <mxCell id="5y4-DtkRxpoeKOYM4xI7-48" value="담당 PL : 계정" style="text;strokeColor=none;fillColor=none;align=left;verticalAlign=top;spacingLeft=4;spacingRight=4;overflow=hidden;rotatable=0;points=[[0,0.5],[1,0.5]];portConstraint=eastwest;whiteSpace=wrap;html=1;" parent="5y4-DtkRxpoeKOYM4xI7-44" vertex="1">
          <mxGeometry y="78" width="160" height="26" as="geometry" />
        </mxCell>
        <mxCell id="5y4-DtkRxpoeKOYM4xI7-46" value="" style="line;strokeWidth=1;fillColor=none;align=left;verticalAlign=middle;spacingTop=-1;spacingLeft=3;spacingRight=3;rotatable=0;labelPosition=right;points=[];portConstraint=eastwest;strokeColor=inherit;" parent="5y4-DtkRxpoeKOYM4xI7-44" vertex="1">
          <mxGeometry y="104" width="160" height="8" as="geometry" />
        </mxCell>
        <mxCell id="5y4-DtkRxpoeKOYM4xI7-49" value="Issue" style="swimlane;fontStyle=1;align=center;verticalAlign=top;childLayout=stackLayout;horizontal=1;startSize=26;horizontalStack=0;resizeParent=1;resizeParentMax=0;resizeLast=0;collapsible=1;marginBottom=0;whiteSpace=wrap;html=1;" parent="1" vertex="1">
          <mxGeometry x="1040" y="200" width="160" height="268" as="geometry" />
        </mxCell>
        <mxCell id="5y4-DtkRxpoeKOYM4xI7-50" value="제목 : Text" style="text;strokeColor=none;fillColor=none;align=left;verticalAlign=top;spacingLeft=4;spacingRight=4;overflow=hidden;rotatable=0;points=[[0,0.5],[1,0.5]];portConstraint=eastwest;whiteSpace=wrap;html=1;" parent="5y4-DtkRxpoeKOYM4xI7-49" vertex="1">
          <mxGeometry y="26" width="160" height="26" as="geometry" />
        </mxCell>
        <mxCell id="5y4-DtkRxpoeKOYM4xI7-52" value="설명 : Text" style="text;strokeColor=none;fillColor=none;align=left;verticalAlign=top;spacingLeft=4;spacingRight=4;overflow=hidden;rotatable=0;points=[[0,0.5],[1,0.5]];portConstraint=eastwest;whiteSpace=wrap;html=1;" parent="5y4-DtkRxpoeKOYM4xI7-49" vertex="1">
          <mxGeometry y="52" width="160" height="26" as="geometry" />
        </mxCell>
        <mxCell id="5y4-DtkRxpoeKOYM4xI7-61" value="우선순위 : Text" style="text;strokeColor=none;fillColor=none;align=left;verticalAlign=top;spacingLeft=4;spacingRight=4;overflow=hidden;rotatable=0;points=[[0,0.5],[1,0.5]];portConstraint=eastwest;whiteSpace=wrap;html=1;" parent="5y4-DtkRxpoeKOYM4xI7-49" vertex="1">
          <mxGeometry y="78" width="160" height="26" as="geometry" />
        </mxCell>
        <mxCell id="5y4-DtkRxpoeKOYM4xI7-62" value="해당 프로젝트 : 프로젝트" style="text;strokeColor=none;fillColor=none;align=left;verticalAlign=top;spacingLeft=4;spacingRight=4;overflow=hidden;rotatable=0;points=[[0,0.5],[1,0.5]];portConstraint=eastwest;whiteSpace=wrap;html=1;" parent="5y4-DtkRxpoeKOYM4xI7-49" vertex="1">
          <mxGeometry y="104" width="160" height="26" as="geometry" />
        </mxCell>
        <mxCell id="5y4-DtkRxpoeKOYM4xI7-54" value="reporter : 계정" style="text;strokeColor=none;fillColor=none;align=left;verticalAlign=top;spacingLeft=4;spacingRight=4;overflow=hidden;rotatable=0;points=[[0,0.5],[1,0.5]];portConstraint=eastwest;whiteSpace=wrap;html=1;" parent="5y4-DtkRxpoeKOYM4xI7-49" vertex="1">
          <mxGeometry y="130" width="160" height="26" as="geometry" />
        </mxCell>
        <mxCell id="5y4-DtkRxpoeKOYM4xI7-56" value="reported date : Time" style="text;strokeColor=none;fillColor=none;align=left;verticalAlign=top;spacingLeft=4;spacingRight=4;overflow=hidden;rotatable=0;points=[[0,0.5],[1,0.5]];portConstraint=eastwest;whiteSpace=wrap;html=1;" parent="5y4-DtkRxpoeKOYM4xI7-49" vertex="1">
          <mxGeometry y="156" width="160" height="26" as="geometry" />
        </mxCell>
        <mxCell id="5y4-DtkRxpoeKOYM4xI7-57" value="이슈 상태 : Text" style="text;strokeColor=none;fillColor=none;align=left;verticalAlign=top;spacingLeft=4;spacingRight=4;overflow=hidden;rotatable=0;points=[[0,0.5],[1,0.5]];portConstraint=eastwest;whiteSpace=wrap;html=1;" parent="5y4-DtkRxpoeKOYM4xI7-49" vertex="1">
          <mxGeometry y="182" width="160" height="26" as="geometry" />
        </mxCell>
        <mxCell id="5y4-DtkRxpoeKOYM4xI7-55" value="fixer : 계정" style="text;strokeColor=none;fillColor=none;align=left;verticalAlign=top;spacingLeft=4;spacingRight=4;overflow=hidden;rotatable=0;points=[[0,0.5],[1,0.5]];portConstraint=eastwest;whiteSpace=wrap;html=1;" parent="5y4-DtkRxpoeKOYM4xI7-49" vertex="1">
          <mxGeometry y="208" width="160" height="26" as="geometry" />
        </mxCell>
        <mxCell id="5y4-DtkRxpoeKOYM4xI7-58" value="assignee : 계정" style="text;strokeColor=none;fillColor=none;align=left;verticalAlign=top;spacingLeft=4;spacingRight=4;overflow=hidden;rotatable=0;points=[[0,0.5],[1,0.5]];portConstraint=eastwest;whiteSpace=wrap;html=1;" parent="5y4-DtkRxpoeKOYM4xI7-49" vertex="1">
          <mxGeometry y="234" width="160" height="26" as="geometry" />
        </mxCell>
        <mxCell id="5y4-DtkRxpoeKOYM4xI7-51" value="" style="line;strokeWidth=1;fillColor=none;align=left;verticalAlign=middle;spacingTop=-1;spacingLeft=3;spacingRight=3;rotatable=0;labelPosition=right;points=[];portConstraint=eastwest;strokeColor=inherit;" parent="5y4-DtkRxpoeKOYM4xI7-49" vertex="1">
          <mxGeometry y="260" width="160" height="8" as="geometry" />
        </mxCell>
        <mxCell id="5y4-DtkRxpoeKOYM4xI7-68" value="&amp;lt;&amp;lt;interface&amp;gt;&amp;gt;&lt;br&gt;CommentService" style="swimlane;fontStyle=1;align=center;verticalAlign=top;childLayout=stackLayout;horizontal=1;startSize=40;horizontalStack=0;resizeParent=1;resizeParentMax=0;resizeLast=0;collapsible=1;marginBottom=0;whiteSpace=wrap;html=1;" parent="1" vertex="1">
          <mxGeometry x="1241" y="560" width="160" height="74" as="geometry" />
        </mxCell>
        <mxCell id="5y4-DtkRxpoeKOYM4xI7-70" value="" style="line;strokeWidth=1;fillColor=none;align=left;verticalAlign=middle;spacingTop=-1;spacingLeft=3;spacingRight=3;rotatable=0;labelPosition=right;points=[];portConstraint=eastwest;strokeColor=inherit;" parent="5y4-DtkRxpoeKOYM4xI7-68" vertex="1">
          <mxGeometry y="40" width="160" height="8" as="geometry" />
        </mxCell>
        <mxCell id="5y4-DtkRxpoeKOYM4xI7-72" value="requestMake()" style="text;strokeColor=none;fillColor=none;align=left;verticalAlign=top;spacingLeft=4;spacingRight=4;overflow=hidden;rotatable=0;points=[[0,0.5],[1,0.5]];portConstraint=eastwest;whiteSpace=wrap;html=1;" parent="5y4-DtkRxpoeKOYM4xI7-68" vertex="1">
          <mxGeometry y="48" width="160" height="26" as="geometry" />
        </mxCell>
        <mxCell id="5y4-DtkRxpoeKOYM4xI7-76" value="Comment" style="swimlane;fontStyle=1;align=center;verticalAlign=top;childLayout=stackLayout;horizontal=1;startSize=26;horizontalStack=0;resizeParent=1;resizeParentMax=0;resizeLast=0;collapsible=1;marginBottom=0;whiteSpace=wrap;html=1;" parent="1" vertex="1">
          <mxGeometry x="1241" y="200" width="160" height="138" as="geometry" />
        </mxCell>
        <mxCell id="5y4-DtkRxpoeKOYM4xI7-77" value="내용 : Text" style="text;strokeColor=none;fillColor=none;align=left;verticalAlign=top;spacingLeft=4;spacingRight=4;overflow=hidden;rotatable=0;points=[[0,0.5],[1,0.5]];portConstraint=eastwest;whiteSpace=wrap;html=1;" parent="5y4-DtkRxpoeKOYM4xI7-76" vertex="1">
          <mxGeometry y="26" width="160" height="26" as="geometry" />
        </mxCell>
        <mxCell id="5y4-DtkRxpoeKOYM4xI7-79" value="작성자 : 계정" style="text;strokeColor=none;fillColor=none;align=left;verticalAlign=top;spacingLeft=4;spacingRight=4;overflow=hidden;rotatable=0;points=[[0,0.5],[1,0.5]];portConstraint=eastwest;whiteSpace=wrap;html=1;" parent="5y4-DtkRxpoeKOYM4xI7-76" vertex="1">
          <mxGeometry y="52" width="160" height="26" as="geometry" />
        </mxCell>
        <mxCell id="5y4-DtkRxpoeKOYM4xI7-80" value="작성시간 : Time" style="text;strokeColor=none;fillColor=none;align=left;verticalAlign=top;spacingLeft=4;spacingRight=4;overflow=hidden;rotatable=0;points=[[0,0.5],[1,0.5]];portConstraint=eastwest;whiteSpace=wrap;html=1;" parent="5y4-DtkRxpoeKOYM4xI7-76" vertex="1">
          <mxGeometry y="78" width="160" height="26" as="geometry" />
        </mxCell>
        <mxCell id="5y4-DtkRxpoeKOYM4xI7-107" value="해당 이슈 : 이슈" style="text;strokeColor=none;fillColor=none;align=left;verticalAlign=top;spacingLeft=4;spacingRight=4;overflow=hidden;rotatable=0;points=[[0,0.5],[1,0.5]];portConstraint=eastwest;whiteSpace=wrap;html=1;" parent="5y4-DtkRxpoeKOYM4xI7-76" vertex="1">
          <mxGeometry y="104" width="160" height="26" as="geometry" />
        </mxCell>
        <mxCell id="5y4-DtkRxpoeKOYM4xI7-78" value="" style="line;strokeWidth=1;fillColor=none;align=left;verticalAlign=middle;spacingTop=-1;spacingLeft=3;spacingRight=3;rotatable=0;labelPosition=right;points=[];portConstraint=eastwest;strokeColor=inherit;" parent="5y4-DtkRxpoeKOYM4xI7-76" vertex="1">
          <mxGeometry y="130" width="160" height="8" as="geometry" />
        </mxCell>
        <mxCell id="TJ0G6_bjU8rwuz7rPNk3-2" value="&amp;lt;&amp;lt;abstract&amp;gt;&amp;gt;&lt;br&gt;BaseServiceImpl" style="swimlane;fontStyle=1;align=center;verticalAlign=top;childLayout=stackLayout;horizontal=1;startSize=36;horizontalStack=0;resizeParent=1;resizeParentMax=0;resizeLast=0;collapsible=1;marginBottom=0;whiteSpace=wrap;html=1;" vertex="1" parent="1">
          <mxGeometry x="280" y="882" width="160" height="310" as="geometry" />
        </mxCell>
        <mxCell id="TJ0G6_bjU8rwuz7rPNk3-3" value="Map attributeDict" style="text;strokeColor=none;fillColor=none;align=left;verticalAlign=top;spacingLeft=4;spacingRight=4;overflow=hidden;rotatable=0;points=[[0,0.5],[1,0.5]];portConstraint=eastwest;whiteSpace=wrap;html=1;" vertex="1" parent="TJ0G6_bjU8rwuz7rPNk3-2">
          <mxGeometry y="36" width="160" height="26" as="geometry" />
        </mxCell>
        <mxCell id="TJ0G6_bjU8rwuz7rPNk3-19" value="List dataList" style="text;strokeColor=none;fillColor=none;align=left;verticalAlign=top;spacingLeft=4;spacingRight=4;overflow=hidden;rotatable=0;points=[[0,0.5],[1,0.5]];portConstraint=eastwest;whiteSpace=wrap;html=1;" vertex="1" parent="TJ0G6_bjU8rwuz7rPNk3-2">
          <mxGeometry y="62" width="160" height="26" as="geometry" />
        </mxCell>
        <mxCell id="TJ0G6_bjU8rwuz7rPNk3-4" value="" style="line;strokeWidth=1;fillColor=none;align=left;verticalAlign=middle;spacingTop=-1;spacingLeft=3;spacingRight=3;rotatable=0;labelPosition=right;points=[];portConstraint=eastwest;strokeColor=inherit;" vertex="1" parent="TJ0G6_bjU8rwuz7rPNk3-2">
          <mxGeometry y="88" width="160" height="8" as="geometry" />
        </mxCell>
        <mxCell id="TJ0G6_bjU8rwuz7rPNk3-5" value="enterInfo(key, value)" style="text;strokeColor=none;fillColor=none;align=left;verticalAlign=top;spacingLeft=4;spacingRight=4;overflow=hidden;rotatable=0;points=[[0,0.5],[1,0.5]];portConstraint=eastwest;whiteSpace=wrap;html=1;" vertex="1" parent="TJ0G6_bjU8rwuz7rPNk3-2">
          <mxGeometry y="96" width="160" height="26" as="geometry" />
        </mxCell>
        <mxCell id="TJ0G6_bjU8rwuz7rPNk3-6" value="getAttributes()" style="text;strokeColor=none;fillColor=none;align=left;verticalAlign=top;spacingLeft=4;spacingRight=4;overflow=hidden;rotatable=0;points=[[0,0.5],[1,0.5]];portConstraint=eastwest;whiteSpace=wrap;html=1;" vertex="1" parent="TJ0G6_bjU8rwuz7rPNk3-2">
          <mxGeometry y="122" width="160" height="26" as="geometry" />
        </mxCell>
        <mxCell id="TJ0G6_bjU8rwuz7rPNk3-16" value="checkValidation(&lt;br&gt;&lt;span style=&quot;white-space: pre;&quot;&gt;&#x9;&lt;/span&gt;attributeDictionary&lt;br&gt;&lt;span style=&quot;white-space: pre;&quot;&gt;&#x9;&lt;/span&gt;) {abst.}" style="text;strokeColor=none;fillColor=none;align=left;verticalAlign=top;spacingLeft=4;spacingRight=4;overflow=hidden;rotatable=0;points=[[0,0.5],[1,0.5]];portConstraint=eastwest;whiteSpace=wrap;html=1;" vertex="1" parent="TJ0G6_bjU8rwuz7rPNk3-2">
          <mxGeometry y="148" width="160" height="58" as="geometry" />
        </mxCell>
        <mxCell id="TJ0G6_bjU8rwuz7rPNk3-17" value="loadDB()" style="text;strokeColor=none;fillColor=none;align=left;verticalAlign=top;spacingLeft=4;spacingRight=4;overflow=hidden;rotatable=0;points=[[0,0.5],[1,0.5]];portConstraint=eastwest;whiteSpace=wrap;html=1;" vertex="1" parent="TJ0G6_bjU8rwuz7rPNk3-2">
          <mxGeometry y="206" width="160" height="26" as="geometry" />
        </mxCell>
        <mxCell id="TJ0G6_bjU8rwuz7rPNk3-18" value="saveDB()" style="text;strokeColor=none;fillColor=none;align=left;verticalAlign=top;spacingLeft=4;spacingRight=4;overflow=hidden;rotatable=0;points=[[0,0.5],[1,0.5]];portConstraint=eastwest;whiteSpace=wrap;html=1;" vertex="1" parent="TJ0G6_bjU8rwuz7rPNk3-2">
          <mxGeometry y="232" width="160" height="26" as="geometry" />
        </mxCell>
        <mxCell id="TJ0G6_bjU8rwuz7rPNk3-21" value="loadDataFromDB() {abst.}" style="text;strokeColor=none;fillColor=none;align=left;verticalAlign=top;spacingLeft=4;spacingRight=4;overflow=hidden;rotatable=0;points=[[0,0.5],[1,0.5]];portConstraint=eastwest;whiteSpace=wrap;html=1;" vertex="1" parent="TJ0G6_bjU8rwuz7rPNk3-2">
          <mxGeometry y="258" width="160" height="26" as="geometry" />
        </mxCell>
        <mxCell id="TJ0G6_bjU8rwuz7rPNk3-20" value="saveDataToDB() {abst.}" style="text;strokeColor=none;fillColor=none;align=left;verticalAlign=top;spacingLeft=4;spacingRight=4;overflow=hidden;rotatable=0;points=[[0,0.5],[1,0.5]];portConstraint=eastwest;whiteSpace=wrap;html=1;" vertex="1" parent="TJ0G6_bjU8rwuz7rPNk3-2">
          <mxGeometry y="284" width="160" height="26" as="geometry" />
        </mxCell>
        <mxCell id="TJ0G6_bjU8rwuz7rPNk3-7" value="&amp;lt;&amp;lt;interface&amp;gt;&amp;gt;&lt;br&gt;BaseService" style="swimlane;fontStyle=1;align=center;verticalAlign=top;childLayout=stackLayout;horizontal=1;startSize=40;horizontalStack=0;resizeParent=1;resizeParentMax=0;resizeLast=0;collapsible=1;marginBottom=0;whiteSpace=wrap;html=1;" vertex="1" parent="1">
          <mxGeometry x="280" y="560" width="160" height="192" as="geometry" />
        </mxCell>
        <mxCell id="TJ0G6_bjU8rwuz7rPNk3-9" value="" style="line;strokeWidth=1;fillColor=none;align=left;verticalAlign=middle;spacingTop=-1;spacingLeft=3;spacingRight=3;rotatable=0;labelPosition=right;points=[];portConstraint=eastwest;strokeColor=inherit;" vertex="1" parent="TJ0G6_bjU8rwuz7rPNk3-7">
          <mxGeometry y="40" width="160" height="8" as="geometry" />
        </mxCell>
        <mxCell id="TJ0G6_bjU8rwuz7rPNk3-10" value="enterInfo(key, value)" style="text;strokeColor=none;fillColor=none;align=left;verticalAlign=top;spacingLeft=4;spacingRight=4;overflow=hidden;rotatable=0;points=[[0,0.5],[1,0.5]];portConstraint=eastwest;whiteSpace=wrap;html=1;" vertex="1" parent="TJ0G6_bjU8rwuz7rPNk3-7">
          <mxGeometry y="48" width="160" height="26" as="geometry" />
        </mxCell>
        <mxCell id="TJ0G6_bjU8rwuz7rPNk3-11" value="getAttributes()" style="text;strokeColor=none;fillColor=none;align=left;verticalAlign=top;spacingLeft=4;spacingRight=4;overflow=hidden;rotatable=0;points=[[0,0.5],[1,0.5]];portConstraint=eastwest;whiteSpace=wrap;html=1;" vertex="1" parent="TJ0G6_bjU8rwuz7rPNk3-7">
          <mxGeometry y="74" width="160" height="26" as="geometry" />
        </mxCell>
        <mxCell id="TJ0G6_bjU8rwuz7rPNk3-12" value="checkValidation(&lt;br&gt;&lt;span style=&quot;white-space: pre;&quot;&gt;&#x9;&lt;/span&gt;attributeDictionary)" style="text;strokeColor=none;fillColor=none;align=left;verticalAlign=top;spacingLeft=4;spacingRight=4;overflow=hidden;rotatable=0;points=[[0,0.5],[1,0.5]];portConstraint=eastwest;whiteSpace=wrap;html=1;" vertex="1" parent="TJ0G6_bjU8rwuz7rPNk3-7">
          <mxGeometry y="100" width="160" height="40" as="geometry" />
        </mxCell>
        <mxCell id="TJ0G6_bjU8rwuz7rPNk3-14" value="loadDB()" style="text;strokeColor=none;fillColor=none;align=left;verticalAlign=top;spacingLeft=4;spacingRight=4;overflow=hidden;rotatable=0;points=[[0,0.5],[1,0.5]];portConstraint=eastwest;whiteSpace=wrap;html=1;" vertex="1" parent="TJ0G6_bjU8rwuz7rPNk3-7">
          <mxGeometry y="140" width="160" height="26" as="geometry" />
        </mxCell>
        <mxCell id="TJ0G6_bjU8rwuz7rPNk3-15" value="saveDB()" style="text;strokeColor=none;fillColor=none;align=left;verticalAlign=top;spacingLeft=4;spacingRight=4;overflow=hidden;rotatable=0;points=[[0,0.5],[1,0.5]];portConstraint=eastwest;whiteSpace=wrap;html=1;" vertex="1" parent="TJ0G6_bjU8rwuz7rPNk3-7">
          <mxGeometry y="166" width="160" height="26" as="geometry" />
        </mxCell>
        <mxCell id="TJ0G6_bjU8rwuz7rPNk3-13" value="" style="endArrow=block;dashed=1;endFill=0;endSize=12;html=1;rounded=0;exitX=0.5;exitY=0;exitDx=0;exitDy=0;entryX=0.499;entryY=1.018;entryDx=0;entryDy=0;entryPerimeter=0;" edge="1" parent="1" source="TJ0G6_bjU8rwuz7rPNk3-2" target="TJ0G6_bjU8rwuz7rPNk3-15">
          <mxGeometry width="160" relative="1" as="geometry">
            <mxPoint x="820" y="328" as="sourcePoint" />
            <mxPoint x="641" y="328" as="targetPoint" />
          </mxGeometry>
        </mxCell>
        <mxCell id="TJ0G6_bjU8rwuz7rPNk3-22" value="AccountServiceImpl" style="swimlane;fontStyle=1;align=center;verticalAlign=top;childLayout=stackLayout;horizontal=1;startSize=26;horizontalStack=0;resizeParent=1;resizeParentMax=0;resizeLast=0;collapsible=1;marginBottom=0;whiteSpace=wrap;html=1;" vertex="1" parent="1">
          <mxGeometry x="640" y="880" width="160" height="148" as="geometry" />
        </mxCell>
        <mxCell id="TJ0G6_bjU8rwuz7rPNk3-24" value="" style="line;strokeWidth=1;fillColor=none;align=left;verticalAlign=middle;spacingTop=-1;spacingLeft=3;spacingRight=3;rotatable=0;labelPosition=right;points=[];portConstraint=eastwest;strokeColor=inherit;" vertex="1" parent="TJ0G6_bjU8rwuz7rPNk3-22">
          <mxGeometry y="26" width="160" height="8" as="geometry" />
        </mxCell>
        <mxCell id="TJ0G6_bjU8rwuz7rPNk3-25" value="checkValidation(&lt;br&gt;&lt;span style=&quot;white-space: pre;&quot;&gt;&#x9;&lt;/span&gt;attributeDictionary)" style="text;strokeColor=none;fillColor=none;align=left;verticalAlign=top;spacingLeft=4;spacingRight=4;overflow=hidden;rotatable=0;points=[[0,0.5],[1,0.5]];portConstraint=eastwest;whiteSpace=wrap;html=1;" vertex="1" parent="TJ0G6_bjU8rwuz7rPNk3-22">
          <mxGeometry y="34" width="160" height="36" as="geometry" />
        </mxCell>
        <mxCell id="TJ0G6_bjU8rwuz7rPNk3-27" value="loadDataFromDB()" style="text;strokeColor=none;fillColor=none;align=left;verticalAlign=top;spacingLeft=4;spacingRight=4;overflow=hidden;rotatable=0;points=[[0,0.5],[1,0.5]];portConstraint=eastwest;whiteSpace=wrap;html=1;" vertex="1" parent="TJ0G6_bjU8rwuz7rPNk3-22">
          <mxGeometry y="70" width="160" height="26" as="geometry" />
        </mxCell>
        <mxCell id="TJ0G6_bjU8rwuz7rPNk3-28" value="saveDataToDB()" style="text;strokeColor=none;fillColor=none;align=left;verticalAlign=top;spacingLeft=4;spacingRight=4;overflow=hidden;rotatable=0;points=[[0,0.5],[1,0.5]];portConstraint=eastwest;whiteSpace=wrap;html=1;" vertex="1" parent="TJ0G6_bjU8rwuz7rPNk3-22">
          <mxGeometry y="96" width="160" height="26" as="geometry" />
        </mxCell>
        <mxCell id="TJ0G6_bjU8rwuz7rPNk3-26" value="requestMake()" style="text;strokeColor=none;fillColor=none;align=left;verticalAlign=top;spacingLeft=4;spacingRight=4;overflow=hidden;rotatable=0;points=[[0,0.5],[1,0.5]];portConstraint=eastwest;whiteSpace=wrap;html=1;" vertex="1" parent="TJ0G6_bjU8rwuz7rPNk3-22">
          <mxGeometry y="122" width="160" height="26" as="geometry" />
        </mxCell>
        <mxCell id="TJ0G6_bjU8rwuz7rPNk3-29" value="ProjectServiceImpl" style="swimlane;fontStyle=1;align=center;verticalAlign=top;childLayout=stackLayout;horizontal=1;startSize=26;horizontalStack=0;resizeParent=1;resizeParentMax=0;resizeLast=0;collapsible=1;marginBottom=0;whiteSpace=wrap;html=1;" vertex="1" parent="1">
          <mxGeometry x="840" y="880" width="160" height="174" as="geometry" />
        </mxCell>
        <mxCell id="TJ0G6_bjU8rwuz7rPNk3-30" value="" style="line;strokeWidth=1;fillColor=none;align=left;verticalAlign=middle;spacingTop=-1;spacingLeft=3;spacingRight=3;rotatable=0;labelPosition=right;points=[];portConstraint=eastwest;strokeColor=inherit;" vertex="1" parent="TJ0G6_bjU8rwuz7rPNk3-29">
          <mxGeometry y="26" width="160" height="8" as="geometry" />
        </mxCell>
        <mxCell id="TJ0G6_bjU8rwuz7rPNk3-31" value="checkValidation(&lt;br&gt;&lt;span style=&quot;white-space: pre;&quot;&gt;&#x9;&lt;/span&gt;attributeDictionary)" style="text;strokeColor=none;fillColor=none;align=left;verticalAlign=top;spacingLeft=4;spacingRight=4;overflow=hidden;rotatable=0;points=[[0,0.5],[1,0.5]];portConstraint=eastwest;whiteSpace=wrap;html=1;" vertex="1" parent="TJ0G6_bjU8rwuz7rPNk3-29">
          <mxGeometry y="34" width="160" height="36" as="geometry" />
        </mxCell>
        <mxCell id="TJ0G6_bjU8rwuz7rPNk3-33" value="loadDataFromDB()" style="text;strokeColor=none;fillColor=none;align=left;verticalAlign=top;spacingLeft=4;spacingRight=4;overflow=hidden;rotatable=0;points=[[0,0.5],[1,0.5]];portConstraint=eastwest;whiteSpace=wrap;html=1;" vertex="1" parent="TJ0G6_bjU8rwuz7rPNk3-29">
          <mxGeometry y="70" width="160" height="26" as="geometry" />
        </mxCell>
        <mxCell id="TJ0G6_bjU8rwuz7rPNk3-34" value="saveDataToDB()" style="text;strokeColor=none;fillColor=none;align=left;verticalAlign=top;spacingLeft=4;spacingRight=4;overflow=hidden;rotatable=0;points=[[0,0.5],[1,0.5]];portConstraint=eastwest;whiteSpace=wrap;html=1;" vertex="1" parent="TJ0G6_bjU8rwuz7rPNk3-29">
          <mxGeometry y="96" width="160" height="26" as="geometry" />
        </mxCell>
        <mxCell id="TJ0G6_bjU8rwuz7rPNk3-32" value="requestMake()" style="text;strokeColor=none;fillColor=none;align=left;verticalAlign=top;spacingLeft=4;spacingRight=4;overflow=hidden;rotatable=0;points=[[0,0.5],[1,0.5]];portConstraint=eastwest;whiteSpace=wrap;html=1;" vertex="1" parent="TJ0G6_bjU8rwuz7rPNk3-29">
          <mxGeometry y="122" width="160" height="26" as="geometry" />
        </mxCell>
        <mxCell id="TJ0G6_bjU8rwuz7rPNk3-47" value="notifyToPL()" style="text;strokeColor=none;fillColor=none;align=left;verticalAlign=top;spacingLeft=4;spacingRight=4;overflow=hidden;rotatable=0;points=[[0,0.5],[1,0.5]];portConstraint=eastwest;whiteSpace=wrap;html=1;" vertex="1" parent="TJ0G6_bjU8rwuz7rPNk3-29">
          <mxGeometry y="148" width="160" height="26" as="geometry" />
        </mxCell>
        <mxCell id="TJ0G6_bjU8rwuz7rPNk3-35" value="IssueServiceImpl" style="swimlane;fontStyle=1;align=center;verticalAlign=top;childLayout=stackLayout;horizontal=1;startSize=26;horizontalStack=0;resizeParent=1;resizeParentMax=0;resizeLast=0;collapsible=1;marginBottom=0;whiteSpace=wrap;html=1;" vertex="1" parent="1">
          <mxGeometry x="1040" y="880" width="160" height="278" as="geometry" />
        </mxCell>
        <mxCell id="TJ0G6_bjU8rwuz7rPNk3-36" value="" style="line;strokeWidth=1;fillColor=none;align=left;verticalAlign=middle;spacingTop=-1;spacingLeft=3;spacingRight=3;rotatable=0;labelPosition=right;points=[];portConstraint=eastwest;strokeColor=inherit;" vertex="1" parent="TJ0G6_bjU8rwuz7rPNk3-35">
          <mxGeometry y="26" width="160" height="8" as="geometry" />
        </mxCell>
        <mxCell id="TJ0G6_bjU8rwuz7rPNk3-37" value="checkValidation(&lt;br&gt;&lt;span style=&quot;white-space: pre;&quot;&gt;&#x9;&lt;/span&gt;attributeDictionary)" style="text;strokeColor=none;fillColor=none;align=left;verticalAlign=top;spacingLeft=4;spacingRight=4;overflow=hidden;rotatable=0;points=[[0,0.5],[1,0.5]];portConstraint=eastwest;whiteSpace=wrap;html=1;" vertex="1" parent="TJ0G6_bjU8rwuz7rPNk3-35">
          <mxGeometry y="34" width="160" height="36" as="geometry" />
        </mxCell>
        <mxCell id="TJ0G6_bjU8rwuz7rPNk3-39" value="loadDataFromDB()" style="text;strokeColor=none;fillColor=none;align=left;verticalAlign=top;spacingLeft=4;spacingRight=4;overflow=hidden;rotatable=0;points=[[0,0.5],[1,0.5]];portConstraint=eastwest;whiteSpace=wrap;html=1;" vertex="1" parent="TJ0G6_bjU8rwuz7rPNk3-35">
          <mxGeometry y="70" width="160" height="26" as="geometry" />
        </mxCell>
        <mxCell id="TJ0G6_bjU8rwuz7rPNk3-40" value="saveDataToDB()" style="text;strokeColor=none;fillColor=none;align=left;verticalAlign=top;spacingLeft=4;spacingRight=4;overflow=hidden;rotatable=0;points=[[0,0.5],[1,0.5]];portConstraint=eastwest;whiteSpace=wrap;html=1;" vertex="1" parent="TJ0G6_bjU8rwuz7rPNk3-35">
          <mxGeometry y="96" width="160" height="26" as="geometry" />
        </mxCell>
        <mxCell id="TJ0G6_bjU8rwuz7rPNk3-38" value="requestMake()" style="text;strokeColor=none;fillColor=none;align=left;verticalAlign=top;spacingLeft=4;spacingRight=4;overflow=hidden;rotatable=0;points=[[0,0.5],[1,0.5]];portConstraint=eastwest;whiteSpace=wrap;html=1;" vertex="1" parent="TJ0G6_bjU8rwuz7rPNk3-35">
          <mxGeometry y="122" width="160" height="26" as="geometry" />
        </mxCell>
        <mxCell id="TJ0G6_bjU8rwuz7rPNk3-48" value="requestBrowse()" style="text;strokeColor=none;fillColor=none;align=left;verticalAlign=top;spacingLeft=4;spacingRight=4;overflow=hidden;rotatable=0;points=[[0,0.5],[1,0.5]];portConstraint=eastwest;whiteSpace=wrap;html=1;" vertex="1" parent="TJ0G6_bjU8rwuz7rPNk3-35">
          <mxGeometry y="148" width="160" height="26" as="geometry" />
        </mxCell>
        <mxCell id="TJ0G6_bjU8rwuz7rPNk3-49" value="requestEdit()" style="text;strokeColor=none;fillColor=none;align=left;verticalAlign=top;spacingLeft=4;spacingRight=4;overflow=hidden;rotatable=0;points=[[0,0.5],[1,0.5]];portConstraint=eastwest;whiteSpace=wrap;html=1;" vertex="1" parent="TJ0G6_bjU8rwuz7rPNk3-35">
          <mxGeometry y="174" width="160" height="26" as="geometry" />
        </mxCell>
        <mxCell id="TJ0G6_bjU8rwuz7rPNk3-50" value="requestAssign()" style="text;strokeColor=none;fillColor=none;align=left;verticalAlign=top;spacingLeft=4;spacingRight=4;overflow=hidden;rotatable=0;points=[[0,0.5],[1,0.5]];portConstraint=eastwest;whiteSpace=wrap;html=1;" vertex="1" parent="TJ0G6_bjU8rwuz7rPNk3-35">
          <mxGeometry y="200" width="160" height="26" as="geometry" />
        </mxCell>
        <mxCell id="TJ0G6_bjU8rwuz7rPNk3-52" value="notifyToDev()" style="text;strokeColor=none;fillColor=none;align=left;verticalAlign=top;spacingLeft=4;spacingRight=4;overflow=hidden;rotatable=0;points=[[0,0.5],[1,0.5]];portConstraint=eastwest;whiteSpace=wrap;html=1;" vertex="1" parent="TJ0G6_bjU8rwuz7rPNk3-35">
          <mxGeometry y="226" width="160" height="26" as="geometry" />
        </mxCell>
        <mxCell id="TJ0G6_bjU8rwuz7rPNk3-51" value="notifyToPL()" style="text;strokeColor=none;fillColor=none;align=left;verticalAlign=top;spacingLeft=4;spacingRight=4;overflow=hidden;rotatable=0;points=[[0,0.5],[1,0.5]];portConstraint=eastwest;whiteSpace=wrap;html=1;" vertex="1" parent="TJ0G6_bjU8rwuz7rPNk3-35">
          <mxGeometry y="252" width="160" height="26" as="geometry" />
        </mxCell>
        <mxCell id="TJ0G6_bjU8rwuz7rPNk3-41" value="CommentServiceImpl" style="swimlane;fontStyle=1;align=center;verticalAlign=top;childLayout=stackLayout;horizontal=1;startSize=26;horizontalStack=0;resizeParent=1;resizeParentMax=0;resizeLast=0;collapsible=1;marginBottom=0;whiteSpace=wrap;html=1;" vertex="1" parent="1">
          <mxGeometry x="1241" y="882" width="160" height="148" as="geometry" />
        </mxCell>
        <mxCell id="TJ0G6_bjU8rwuz7rPNk3-42" value="" style="line;strokeWidth=1;fillColor=none;align=left;verticalAlign=middle;spacingTop=-1;spacingLeft=3;spacingRight=3;rotatable=0;labelPosition=right;points=[];portConstraint=eastwest;strokeColor=inherit;" vertex="1" parent="TJ0G6_bjU8rwuz7rPNk3-41">
          <mxGeometry y="26" width="160" height="8" as="geometry" />
        </mxCell>
        <mxCell id="TJ0G6_bjU8rwuz7rPNk3-43" value="checkValidation(&lt;br&gt;&lt;span style=&quot;white-space: pre;&quot;&gt;&#x9;&lt;/span&gt;attributeDictionary)" style="text;strokeColor=none;fillColor=none;align=left;verticalAlign=top;spacingLeft=4;spacingRight=4;overflow=hidden;rotatable=0;points=[[0,0.5],[1,0.5]];portConstraint=eastwest;whiteSpace=wrap;html=1;" vertex="1" parent="TJ0G6_bjU8rwuz7rPNk3-41">
          <mxGeometry y="34" width="160" height="36" as="geometry" />
        </mxCell>
        <mxCell id="TJ0G6_bjU8rwuz7rPNk3-45" value="loadDataFromDB()" style="text;strokeColor=none;fillColor=none;align=left;verticalAlign=top;spacingLeft=4;spacingRight=4;overflow=hidden;rotatable=0;points=[[0,0.5],[1,0.5]];portConstraint=eastwest;whiteSpace=wrap;html=1;" vertex="1" parent="TJ0G6_bjU8rwuz7rPNk3-41">
          <mxGeometry y="70" width="160" height="26" as="geometry" />
        </mxCell>
        <mxCell id="TJ0G6_bjU8rwuz7rPNk3-46" value="saveDataToDB()" style="text;strokeColor=none;fillColor=none;align=left;verticalAlign=top;spacingLeft=4;spacingRight=4;overflow=hidden;rotatable=0;points=[[0,0.5],[1,0.5]];portConstraint=eastwest;whiteSpace=wrap;html=1;" vertex="1" parent="TJ0G6_bjU8rwuz7rPNk3-41">
          <mxGeometry y="96" width="160" height="26" as="geometry" />
        </mxCell>
        <mxCell id="TJ0G6_bjU8rwuz7rPNk3-44" value="requestMake()" style="text;strokeColor=none;fillColor=none;align=left;verticalAlign=top;spacingLeft=4;spacingRight=4;overflow=hidden;rotatable=0;points=[[0,0.5],[1,0.5]];portConstraint=eastwest;whiteSpace=wrap;html=1;" vertex="1" parent="TJ0G6_bjU8rwuz7rPNk3-41">
          <mxGeometry y="122" width="160" height="26" as="geometry" />
        </mxCell>
        <mxCell id="TJ0G6_bjU8rwuz7rPNk3-53" value="" style="endArrow=block;dashed=1;endFill=0;endSize=12;html=1;rounded=0;exitX=0.5;exitY=0;exitDx=0;exitDy=0;" edge="1" parent="1" source="TJ0G6_bjU8rwuz7rPNk3-22" target="5y4-DtkRxpoeKOYM4xI7-17">
          <mxGeometry width="160" relative="1" as="geometry">
            <mxPoint x="370" y="892" as="sourcePoint" />
            <mxPoint x="370" y="762" as="targetPoint" />
          </mxGeometry>
        </mxCell>
        <mxCell id="TJ0G6_bjU8rwuz7rPNk3-54" value="" style="endArrow=block;dashed=1;endFill=0;endSize=12;html=1;rounded=0;exitX=0.5;exitY=0;exitDx=0;exitDy=0;" edge="1" parent="1" source="TJ0G6_bjU8rwuz7rPNk3-29">
          <mxGeometry width="160" relative="1" as="geometry">
            <mxPoint x="380" y="902" as="sourcePoint" />
            <mxPoint x="920" y="660" as="targetPoint" />
          </mxGeometry>
        </mxCell>
        <mxCell id="TJ0G6_bjU8rwuz7rPNk3-55" value="" style="endArrow=block;dashed=1;endFill=0;endSize=12;html=1;rounded=0;exitX=0.5;exitY=0;exitDx=0;exitDy=0;entryX=0.5;entryY=1;entryDx=0;entryDy=0;" edge="1" parent="1" source="TJ0G6_bjU8rwuz7rPNk3-35" target="5y4-DtkRxpoeKOYM4xI7-33">
          <mxGeometry width="160" relative="1" as="geometry">
            <mxPoint x="390" y="912" as="sourcePoint" />
            <mxPoint x="390" y="782" as="targetPoint" />
          </mxGeometry>
        </mxCell>
        <mxCell id="TJ0G6_bjU8rwuz7rPNk3-56" value="" style="endArrow=block;dashed=1;endFill=0;endSize=12;html=1;rounded=0;exitX=0.5;exitY=0;exitDx=0;exitDy=0;entryX=0.5;entryY=0.981;entryDx=0;entryDy=0;entryPerimeter=0;" edge="1" parent="1" source="TJ0G6_bjU8rwuz7rPNk3-41" target="5y4-DtkRxpoeKOYM4xI7-72">
          <mxGeometry width="160" relative="1" as="geometry">
            <mxPoint x="400" y="922" as="sourcePoint" />
            <mxPoint x="400" y="792" as="targetPoint" />
          </mxGeometry>
        </mxCell>
        <mxCell id="TJ0G6_bjU8rwuz7rPNk3-57" value="" style="endArrow=block;endSize=16;endFill=0;html=1;rounded=0;entryX=0.5;entryY=0;entryDx=0;entryDy=0;" edge="1" parent="1" target="TJ0G6_bjU8rwuz7rPNk3-7">
          <mxGeometry width="160" relative="1" as="geometry">
            <mxPoint x="360" y="500" as="sourcePoint" />
            <mxPoint x="810" y="580" as="targetPoint" />
          </mxGeometry>
        </mxCell>
        <mxCell id="TJ0G6_bjU8rwuz7rPNk3-58" value="" style="endArrow=none;html=1;rounded=0;" edge="1" parent="1">
          <mxGeometry width="50" height="50" relative="1" as="geometry">
            <mxPoint x="360" y="500" as="sourcePoint" />
            <mxPoint x="1320" y="500" as="targetPoint" />
          </mxGeometry>
        </mxCell>
        <mxCell id="TJ0G6_bjU8rwuz7rPNk3-59" value="" style="endArrow=none;html=1;rounded=0;exitX=0.5;exitY=0;exitDx=0;exitDy=0;" edge="1" parent="1" source="5y4-DtkRxpoeKOYM4xI7-14">
          <mxGeometry width="50" height="50" relative="1" as="geometry">
            <mxPoint x="700" y="600" as="sourcePoint" />
            <mxPoint x="720" y="500" as="targetPoint" />
          </mxGeometry>
        </mxCell>
        <mxCell id="TJ0G6_bjU8rwuz7rPNk3-60" value="" style="endArrow=none;html=1;rounded=0;exitX=0.5;exitY=0;exitDx=0;exitDy=0;" edge="1" parent="1">
          <mxGeometry width="50" height="50" relative="1" as="geometry">
            <mxPoint x="919.47" y="560" as="sourcePoint" />
            <mxPoint x="919.47" y="500" as="targetPoint" />
          </mxGeometry>
        </mxCell>
        <mxCell id="TJ0G6_bjU8rwuz7rPNk3-61" value="" style="endArrow=none;html=1;rounded=0;exitX=0.5;exitY=0;exitDx=0;exitDy=0;" edge="1" parent="1">
          <mxGeometry width="50" height="50" relative="1" as="geometry">
            <mxPoint x="1319.47" y="560" as="sourcePoint" />
            <mxPoint x="1319.47" y="500" as="targetPoint" />
          </mxGeometry>
        </mxCell>
        <mxCell id="TJ0G6_bjU8rwuz7rPNk3-62" value="" style="endArrow=none;html=1;rounded=0;exitX=0.5;exitY=0;exitDx=0;exitDy=0;" edge="1" parent="1">
          <mxGeometry width="50" height="50" relative="1" as="geometry">
            <mxPoint x="1120" y="560" as="sourcePoint" />
            <mxPoint x="1120" y="500" as="targetPoint" />
          </mxGeometry>
        </mxCell>
        <mxCell id="TJ0G6_bjU8rwuz7rPNk3-63" value="" style="endArrow=block;endSize=16;endFill=0;html=1;rounded=0;entryX=0.5;entryY=1;entryDx=0;entryDy=0;" edge="1" parent="1" target="TJ0G6_bjU8rwuz7rPNk3-2">
          <mxGeometry width="160" relative="1" as="geometry">
            <mxPoint x="360" y="1260" as="sourcePoint" />
            <mxPoint x="360" y="1320" as="targetPoint" />
          </mxGeometry>
        </mxCell>
        <mxCell id="TJ0G6_bjU8rwuz7rPNk3-64" value="" style="endArrow=none;html=1;rounded=0;" edge="1" parent="1">
          <mxGeometry width="50" height="50" relative="1" as="geometry">
            <mxPoint x="360" y="1260" as="sourcePoint" />
            <mxPoint x="1320" y="1260" as="targetPoint" />
          </mxGeometry>
        </mxCell>
        <mxCell id="TJ0G6_bjU8rwuz7rPNk3-65" value="" style="endArrow=none;html=1;rounded=0;" edge="1" parent="1" source="TJ0G6_bjU8rwuz7rPNk3-26">
          <mxGeometry width="50" height="50" relative="1" as="geometry">
            <mxPoint x="720" y="1320" as="sourcePoint" />
            <mxPoint x="720" y="1260" as="targetPoint" />
          </mxGeometry>
        </mxCell>
        <mxCell id="TJ0G6_bjU8rwuz7rPNk3-66" value="" style="endArrow=none;html=1;rounded=0;" edge="1" parent="1" source="TJ0G6_bjU8rwuz7rPNk3-47">
          <mxGeometry width="50" height="50" relative="1" as="geometry">
            <mxPoint x="919.47" y="1320" as="sourcePoint" />
            <mxPoint x="919.47" y="1260" as="targetPoint" />
          </mxGeometry>
        </mxCell>
        <mxCell id="TJ0G6_bjU8rwuz7rPNk3-67" value="" style="endArrow=none;html=1;rounded=0;" edge="1" parent="1" source="TJ0G6_bjU8rwuz7rPNk3-44">
          <mxGeometry width="50" height="50" relative="1" as="geometry">
            <mxPoint x="1319.47" y="1320" as="sourcePoint" />
            <mxPoint x="1319.47" y="1260" as="targetPoint" />
          </mxGeometry>
        </mxCell>
        <mxCell id="TJ0G6_bjU8rwuz7rPNk3-68" value="" style="endArrow=none;html=1;rounded=0;" edge="1" parent="1" source="TJ0G6_bjU8rwuz7rPNk3-51">
          <mxGeometry width="50" height="50" relative="1" as="geometry">
            <mxPoint x="1120" y="1320" as="sourcePoint" />
            <mxPoint x="1120" y="1260" as="targetPoint" />
          </mxGeometry>
        </mxCell>
        <mxCell id="TJ0G6_bjU8rwuz7rPNk3-69" value="" style="endArrow=open;endFill=1;endSize=12;html=1;rounded=0;exitX=0.75;exitY=0;exitDx=0;exitDy=0;entryX=0.75;entryY=1;entryDx=0;entryDy=0;" edge="1" parent="1" source="5y4-DtkRxpoeKOYM4xI7-14" target="5y4-DtkRxpoeKOYM4xI7-9">
          <mxGeometry width="160" relative="1" as="geometry">
            <mxPoint x="610" y="500" as="sourcePoint" />
            <mxPoint x="770" y="500" as="targetPoint" />
          </mxGeometry>
        </mxCell>
        <mxCell id="TJ0G6_bjU8rwuz7rPNk3-70" value="" style="endArrow=open;endFill=1;endSize=12;html=1;rounded=0;exitX=0.75;exitY=0;exitDx=0;exitDy=0;entryX=0.75;entryY=1;entryDx=0;entryDy=0;" edge="1" parent="1" source="5y4-DtkRxpoeKOYM4xI7-25" target="5y4-DtkRxpoeKOYM4xI7-44">
          <mxGeometry width="160" relative="1" as="geometry">
            <mxPoint x="770" y="570" as="sourcePoint" />
            <mxPoint x="770" y="296" as="targetPoint" />
          </mxGeometry>
        </mxCell>
        <mxCell id="TJ0G6_bjU8rwuz7rPNk3-71" value="" style="endArrow=open;endFill=1;endSize=12;html=1;rounded=0;exitX=0.75;exitY=0;exitDx=0;exitDy=0;entryX=0.75;entryY=1;entryDx=0;entryDy=0;" edge="1" parent="1" source="5y4-DtkRxpoeKOYM4xI7-33" target="5y4-DtkRxpoeKOYM4xI7-49">
          <mxGeometry width="160" relative="1" as="geometry">
            <mxPoint x="780" y="580" as="sourcePoint" />
            <mxPoint x="780" y="306" as="targetPoint" />
          </mxGeometry>
        </mxCell>
        <mxCell id="TJ0G6_bjU8rwuz7rPNk3-72" value="" style="endArrow=open;endFill=1;endSize=12;html=1;rounded=0;exitX=0.75;exitY=0;exitDx=0;exitDy=0;entryX=0.75;entryY=1;entryDx=0;entryDy=0;" edge="1" parent="1" source="5y4-DtkRxpoeKOYM4xI7-68" target="5y4-DtkRxpoeKOYM4xI7-76">
          <mxGeometry width="160" relative="1" as="geometry">
            <mxPoint x="790" y="590" as="sourcePoint" />
            <mxPoint x="790" y="316" as="targetPoint" />
          </mxGeometry>
        </mxCell>
        <mxCell id="TJ0G6_bjU8rwuz7rPNk3-172" value="Applicatiaon" style="swimlane;fontStyle=1;align=center;verticalAlign=top;childLayout=stackLayout;horizontal=1;startSize=26;horizontalStack=0;resizeParent=1;resizeParentMax=0;resizeLast=0;collapsible=1;marginBottom=0;whiteSpace=wrap;html=1;" vertex="1" parent="1">
          <mxGeometry x="400" y="200" width="160" height="170" as="geometry" />
        </mxCell>
        <mxCell id="TJ0G6_bjU8rwuz7rPNk3-181" value="accountManager :&lt;br&gt;&lt;span style=&quot;white-space: pre;&quot;&gt;&#x9;&lt;/span&gt;AccountService" style="text;strokeColor=none;fillColor=none;align=left;verticalAlign=top;spacingLeft=4;spacingRight=4;overflow=hidden;rotatable=0;points=[[0,0.5],[1,0.5]];portConstraint=eastwest;whiteSpace=wrap;html=1;" vertex="1" parent="TJ0G6_bjU8rwuz7rPNk3-172">
          <mxGeometry y="26" width="160" height="34" as="geometry" />
        </mxCell>
        <mxCell id="TJ0G6_bjU8rwuz7rPNk3-182" value="projectManager :&lt;br&gt;&lt;span style=&quot;white-space: pre;&quot;&gt;&#x9;&lt;/span&gt;ProjectService" style="text;strokeColor=none;fillColor=none;align=left;verticalAlign=top;spacingLeft=4;spacingRight=4;overflow=hidden;rotatable=0;points=[[0,0.5],[1,0.5]];portConstraint=eastwest;whiteSpace=wrap;html=1;" vertex="1" parent="TJ0G6_bjU8rwuz7rPNk3-172">
          <mxGeometry y="60" width="160" height="34" as="geometry" />
        </mxCell>
        <mxCell id="TJ0G6_bjU8rwuz7rPNk3-183" value="issueManager :&lt;br&gt;&lt;span style=&quot;white-space: pre;&quot;&gt;&#x9;&lt;/span&gt;IssueService" style="text;strokeColor=none;fillColor=none;align=left;verticalAlign=top;spacingLeft=4;spacingRight=4;overflow=hidden;rotatable=0;points=[[0,0.5],[1,0.5]];portConstraint=eastwest;whiteSpace=wrap;html=1;" vertex="1" parent="TJ0G6_bjU8rwuz7rPNk3-172">
          <mxGeometry y="94" width="160" height="34" as="geometry" />
        </mxCell>
        <mxCell id="TJ0G6_bjU8rwuz7rPNk3-184" value="commentManager :&lt;br&gt;&lt;span style=&quot;white-space: pre;&quot;&gt;&#x9;&lt;/span&gt;CommentService" style="text;strokeColor=none;fillColor=none;align=left;verticalAlign=top;spacingLeft=4;spacingRight=4;overflow=hidden;rotatable=0;points=[[0,0.5],[1,0.5]];portConstraint=eastwest;whiteSpace=wrap;html=1;" vertex="1" parent="TJ0G6_bjU8rwuz7rPNk3-172">
          <mxGeometry y="128" width="160" height="34" as="geometry" />
        </mxCell>
        <mxCell id="TJ0G6_bjU8rwuz7rPNk3-174" value="" style="line;strokeWidth=1;fillColor=none;align=left;verticalAlign=middle;spacingTop=-1;spacingLeft=3;spacingRight=3;rotatable=0;labelPosition=right;points=[];portConstraint=eastwest;strokeColor=inherit;" vertex="1" parent="TJ0G6_bjU8rwuz7rPNk3-172">
          <mxGeometry y="162" width="160" height="8" as="geometry" />
        </mxCell>
        <mxCell id="TJ0G6_bjU8rwuz7rPNk3-176" value="" style="endArrow=open;endSize=12;dashed=1;html=1;rounded=0;entryX=0.25;entryY=0;entryDx=0;entryDy=0;" edge="1" parent="1" target="5y4-DtkRxpoeKOYM4xI7-14">
          <mxGeometry width="160" relative="1" as="geometry">
            <mxPoint x="680" y="520" as="sourcePoint" />
            <mxPoint x="770" y="500" as="targetPoint" />
          </mxGeometry>
        </mxCell>
        <mxCell id="TJ0G6_bjU8rwuz7rPNk3-177" value="" style="endArrow=open;endSize=12;dashed=1;html=1;rounded=0;entryX=0.25;entryY=0;entryDx=0;entryDy=0;" edge="1" parent="1">
          <mxGeometry width="160" relative="1" as="geometry">
            <mxPoint x="880" y="520" as="sourcePoint" />
            <mxPoint x="880" y="560" as="targetPoint" />
          </mxGeometry>
        </mxCell>
        <mxCell id="TJ0G6_bjU8rwuz7rPNk3-178" value="" style="endArrow=open;endSize=12;dashed=1;html=1;rounded=0;entryX=0.25;entryY=0;entryDx=0;entryDy=0;" edge="1" parent="1">
          <mxGeometry width="160" relative="1" as="geometry">
            <mxPoint x="1280" y="520" as="sourcePoint" />
            <mxPoint x="1280" y="560" as="targetPoint" />
          </mxGeometry>
        </mxCell>
        <mxCell id="TJ0G6_bjU8rwuz7rPNk3-179" value="" style="endArrow=open;endSize=12;dashed=1;html=1;rounded=0;entryX=0.25;entryY=0;entryDx=0;entryDy=0;" edge="1" parent="1">
          <mxGeometry width="160" relative="1" as="geometry">
            <mxPoint x="1080" y="520" as="sourcePoint" />
            <mxPoint x="1080" y="560" as="targetPoint" />
          </mxGeometry>
        </mxCell>
        <mxCell id="TJ0G6_bjU8rwuz7rPNk3-180" value="" style="endArrow=none;dashed=1;html=1;rounded=0;" edge="1" parent="1">
          <mxGeometry width="50" height="50" relative="1" as="geometry">
            <mxPoint x="480" y="520" as="sourcePoint" />
            <mxPoint x="1280" y="520" as="targetPoint" />
          </mxGeometry>
        </mxCell>
        <mxCell id="TJ0G6_bjU8rwuz7rPNk3-185" value="" style="endArrow=none;dashed=1;html=1;rounded=0;entryX=0.5;entryY=1;entryDx=0;entryDy=0;" edge="1" parent="1" target="TJ0G6_bjU8rwuz7rPNk3-172">
          <mxGeometry width="50" height="50" relative="1" as="geometry">
            <mxPoint x="480" y="520" as="sourcePoint" />
            <mxPoint x="660" y="350" as="targetPoint" />
          </mxGeometry>
        </mxCell>
      </root>
    </mxGraphModel>
  </diagram>
</mxfile>
